<?xml version="1.0" standalone="no"?>
<!DOCTYPE svg PUBLIC "-//W3C//DTD SVG 20010904//EN"
 "http://www.w3.org/TR/2001/REC-SVG-20010904/DTD/svg10.dtd">
<svg version="1.0" xmlns="http://www.w3.org/2000/svg"
 width="50.000000pt" height="50.000000pt" viewBox="0 0 298.000000 302.000000"
 preserveAspectRatio="xMidYMid meet">

<g transform="translate(0.000000,302.000000) scale(0.100000,-0.100000)"
fill="#000000" stroke="none">
<path d="M1425 2820 c-11 -4 -40 -14 -64 -21 -93 -28 -189 -133 -223 -244 -23
-74 -42 -189 -35 -216 32 -132 50 -171 110 -236 54 -58 130 -116 237 -181 154
-91 278 -201 359 -314 l34 -48 20 33 c64 106 198 225 408 363 139 91 226 168
258 232 10 20 27 68 36 107 16 62 16 79 5 150 -27 168 -95 276 -212 334 -52
27 -72 31 -139 31 -105 0 -174 -27 -252 -99 -32 -30 -74 -79 -93 -108 -18 -29
-36 -53 -38 -53 -3 0 -18 24 -35 53 -38 66 -123 151 -178 178 -39 19 -144 49
-168 48 -5 0 -19 -4 -30 -9z"/>
<path d="M470 2666 l0 -34 68 -8 67 -9 3 -408 c2 -321 0 -408 -10 -412 -7 -2
-39 -6 -70 -10 l-58 -6 0 -35 0 -34 210 0 210 0 0 29 c0 37 -8 42 -81 48 l-59
6 0 412 0 412 61 7 c75 7 79 10 79 47 l0 29 -210 0 -210 0 0 -34z"/>
<path d="M522 975 c-135 -42 -211 -166 -200 -328 10 -141 87 -249 204 -283
109 -31 308 -1 328 51 3 9 6 59 6 110 l0 94 35 7 c28 5 35 11 35 30 l0 24
-135 0 -135 0 0 -25 c0 -22 5 -25 50 -31 l50 -7 0 -93 c0 -111 -6 -117 -110
-117 -142 0 -230 100 -230 262 0 114 45 203 123 242 48 25 146 30 193 11 27
-12 32 -20 40 -70 8 -52 11 -57 37 -60 35 -4 41 12 32 93 l-7 65 -65 20 c-76
23 -186 26 -251 5z"/>
<path d="M2118 976 c-101 -37 -141 -106 -117 -201 17 -66 66 -104 181 -140
115 -37 158 -71 158 -124 0 -68 -50 -101 -154 -101 -111 0 -136 19 -136 106 0
25 -26 39 -54 28 -14 -5 -16 -18 -14 -78 l3 -71 65 -22 c127 -43 281 -24 339
42 37 43 45 70 39 136 -8 82 -56 121 -214 173 -48 16 -91 37 -105 52 -33 35
-31 86 4 122 26 25 33 27 111 27 47 0 88 -3 92 -7 4 -4 9 -30 12 -58 4 -49 5
-50 38 -50 l34 0 0 68 0 68 -37 19 c-50 24 -193 31 -245 11z"/>
<path d="M1336 913 c-14 -37 -61 -162 -103 -278 l-78 -209 -45 -11 c-34 -8
-45 -16 -45 -30 0 -19 8 -20 115 -20 108 0 115 1 115 20 0 14 -10 22 -37 28
-21 5 -38 12 -37 15 0 4 10 34 22 67 l22 60 114 0 114 0 28 -67 28 -68 -40 -6
c-33 -6 -39 -10 -39 -30 l0 -24 135 0 c135 0 135 0 135 23 0 20 -7 25 -46 33
l-47 9 -107 275 -107 275 -35 3 c-36 3 -36 3 -62 -65z m93 -186 c23 -59 41
-109 41 -112 0 -3 -40 -5 -90 -5 -49 0 -90 3 -90 6 0 3 19 59 42 125 24 70 45
114 49 107 4 -7 26 -61 48 -121z"/>
</g>
</svg>
